# xmcd
#
# Track frame offsets:
#	150
#	17685
#	33606
#	51194
#	69306
#	89534
#	107951
#	127845
#	144669
#	158466
#	176447
#	203822
#	218652
#	236771
#	254856
#
# Disc length: 3546 seconds
#
# Revision: 1
# Processed by: cddbd v1.5.2PL0 Copyright (c) Steve Scherf et al.
# Submitted via: audiograbber 1.83.01
#
DISCID=d40dd80f
DTITLE=Various Artist - Edge Of The 80's - Back To The Edge[CD1]
DYEAR=1900
DGENRE=Retro
TTITLE0=Chris Rea - Stainsby Girls
TTITLE1=Eurythmics - Sweet Dreams(are made of this)
TTITLE2=Spandau Ballet - Gold
TTITLE3=Alan Parsons Project - Don't Answer Me
TTITLE4=Jon and Vangelis - I'll Find My Way Home
TTITLE5=Bonnie Tyler - Have You Ever Seen The Rain?
TTITLE6=Climie Fisher - Love Changes(everything)
TTITLE7=Baltimora - Tarzan Boy
TTITLE8=Living In A Box - Living In A Box
TTITLE9=Howard Jones - Like To Get To Know You Well
TTITLE10=Grace Jones - Love Is The Drug
TTITLE11=Godley and Creme - Wedding Bells
TTITLE12=REO Speedwagon - Take It On The Run
TTITLE13=Go West - King Of Wishful Thinking
TTITLE14=Jan Hammer - Miami Vice Theme
EXTD=
EXTT0=
EXTT1=
EXTT2=
EXTT3=
EXTT4=
EXTT5=
EXTT6=
EXTT7=
EXTT8=
EXTT9=
EXTT10=
EXTT11=
EXTT12=
EXTT13=
EXTT14=
PLAYORDER=
